<svg width="460" height="92" viewBox="0 0 460 92" fill="none" xmlns="http://www.w3.org/2000/svg">
<path d="M167.966 13.6116C168.61 13.6116 169.162 13.0598 169.162 12.416V1.47158C169.162 0.827789 168.61 0.275968 167.966 0.275968H133.018C132.374 0.275968 131.822 0.827789 131.822 1.47158V12.416C131.822 13.0598 132.374 13.6116 133.018 13.6116H143.134V54.2624C143.134 54.9062 143.686 55.458 144.33 55.458H156.562C157.206 55.458 157.757 54.9062 157.757 54.2624V13.6116H167.966ZM210.088 13.6116C210.732 13.6116 211.284 13.0598 211.284 12.416V1.47158C211.284 0.827789 210.732 0.275968 210.088 0.275968H175.14C174.496 0.275968 173.944 0.827789 173.944 1.47158V12.416C173.944 13.0598 174.496 13.6116 175.14 13.6116H185.257V54.2624C185.257 54.9062 185.808 55.458 186.452 55.458H198.776C199.42 55.458 199.972 54.9062 199.972 54.2624V13.6116H210.088ZM417.665 0.275968H405.341C404.697 0.275968 404.145 0.827789 404.053 1.47158V32.6495C404.053 38.0757 399.639 42.3983 394.305 42.3983H393.845C388.603 42.0304 384.556 37.6158 384.648 32.3735V1.47158C384.648 0.827789 384.096 0.275968 383.452 0.275968H371.22C370.576 0.275968 370.025 0.827789 370.025 1.47158V31.4538C370.025 44.7895 380.509 56.0099 393.937 56.3777C407.456 56.6537 418.677 45.8932 418.861 32.3735V1.47158C418.861 0.827789 418.401 0.275968 417.665 0.275968ZM458.776 42.1224H442.957V1.47158C442.957 0.827789 442.405 0.275968 441.761 0.275968H429.437C428.793 0.275968 428.242 0.827789 428.242 1.47158V51.7792C428.242 53.8026 429.897 55.458 431.92 55.458H458.776C459.419 55.458 459.971 54.9062 459.971 54.2624V43.318C459.971 42.6742 459.419 42.1224 458.776 42.1224ZM311.715 35.6845C320.912 30.902 324.499 19.5897 319.717 10.3927C316.498 4.23068 310.152 0.367938 303.254 0.275968H280.538C279.71 0.275968 278.974 0.919759 278.974 1.74749V54.2624C278.974 54.9062 279.526 55.458 280.17 55.458H292.494C293.138 55.458 293.689 54.9062 293.689 54.2624V37.7078H295.161L306.657 54.4464C307.209 55.1821 308.037 55.642 308.956 55.642H322.844C323.672 55.642 324.315 54.9982 324.223 54.1705C324.223 53.8946 324.131 53.6186 323.948 53.3427L311.715 35.6845ZM308.497 18.9459C308.588 21.8889 306.197 24.2802 303.346 24.2802H293.873V13.6116H303.346C306.197 13.7036 308.497 16.0948 308.497 18.9459ZM245.221 5.75837e-05C231.242 -0.643733 218.918 9.19707 216.342 22.9006C213.123 40.5589 226.459 55.9179 244.025 55.9179C250.095 55.9179 255.982 53.9865 260.856 50.3997C261.408 50.0318 261.5 49.296 261.224 48.8362C261.132 48.7442 261.132 48.6523 261.04 48.5603L252.947 41.2027C252.671 40.9268 252.119 40.8348 251.751 41.1107C249.544 42.3983 247.06 43.1341 244.485 43.1341C238.047 43.1341 232.437 38.9034 231.15 33.5692H270.605C271.433 33.5692 272.076 32.9254 272.076 32.0976V27.4991C271.616 14.5313 262.052 0.643849 245.221 5.75837e-05ZM231.518 21.797C234.001 16.7386 238.599 13.0598 244.669 13.0598C250.279 12.8759 255.338 16.4627 256.901 21.797H231.518ZM59.1655 1.1037L31.2985 25.9356L3.43158 1.1037C2.60385 0.367938 1.31627 0.367938 0.580507 1.19567C0.212627 1.65552 0.0286865 2.11537 0.0286865 2.57522V53.8026C0.0286865 54.7223 0.764448 55.458 1.68415 55.458H13.0884C14.0081 55.458 14.7439 54.7223 14.7439 53.8026V30.8101L29.4591 43.9618C30.4708 44.8815 32.0343 44.8815 33.046 43.9618L47.7612 30.902V53.8946C47.7612 54.8143 48.4969 55.55 49.4166 55.55H60.8209C61.7406 55.55 62.4764 54.8143 62.4764 53.8946V2.57522C62.4764 1.47158 61.5567 0.551878 60.4531 0.551878C59.9932 0.551878 59.5334 0.735819 59.1655 1.1037ZM125.292 54.1705V1.93143C125.292 1.01173 124.556 0.275968 123.637 0.275968H112.508C111.588 0.275968 110.853 1.01173 110.853 1.93143V4.50659C106.714 2.11537 102.024 0.827789 97.2411 0.827789C82.066 1.1037 70.018 13.6116 70.2939 28.8787C70.5698 43.6859 82.5259 55.642 97.3331 55.9179C102.116 55.9179 106.806 54.6303 110.945 52.2391V54.2624C110.945 55.1821 111.68 55.9179 112.6 55.9179H123.729C124.556 55.8259 125.292 55.0902 125.292 54.1705ZM97.701 41.1107C90.6193 41.1107 84.9171 35.4086 84.9171 28.3269C84.9171 21.2452 90.6193 15.543 97.701 15.543C104.783 15.543 110.485 21.2452 110.485 28.3269C110.485 35.4086 104.783 41.1107 97.701 41.1107ZM359.448 36.5122C360.092 36.5122 360.644 35.9604 360.644 35.3166V24.2802C360.644 23.6364 360.092 23.0846 359.448 23.0846H345.377V13.6116H361.103C361.747 13.6116 362.299 13.0598 362.299 12.416V1.47158C362.299 0.827789 361.747 0.275968 361.103 0.275968H332.225C331.397 0.275968 330.661 0.919759 330.661 1.74749V53.9865C330.661 54.8143 331.305 55.55 332.225 55.55H343.905C344.733 55.55 345.469 54.9062 345.469 53.9865V36.5122H359.448ZM127.131 81.6695L127.223 81.5776C127.499 81.2097 127.775 80.7498 127.959 80.29C128.143 79.8301 128.235 79.3703 128.235 78.8185C128.235 77.7148 127.867 76.7031 127.223 75.8754C126.947 75.5075 126.58 75.1397 126.212 74.7718C125.384 74.22 124.372 73.8521 123.361 73.8521H116.647V90.7746H123.82C124.372 90.7746 124.924 90.6826 125.384 90.4987C127.591 89.8549 129.063 87.8315 129.063 85.6243C129.063 84.5206 128.695 83.417 128.051 82.5892C127.775 82.2214 127.407 81.9454 127.131 81.6695ZM119.866 76.8871H123.361C123.545 76.8871 123.82 76.9791 124.004 77.071C124.188 77.163 124.372 77.3469 124.556 77.5309C124.832 77.8988 125.016 78.3586 125.016 78.8185C125.016 79.1863 124.832 79.5542 124.648 79.8301L124.188 80.29C124.004 80.382 123.82 80.4739 123.637 80.4739H119.958L119.866 76.8871ZM125.108 87.2797C124.74 87.6476 124.28 87.8315 123.729 87.8315H119.866V83.5089H123.637C123.912 83.5089 124.188 83.5089 124.464 83.6009C124.74 83.6929 124.924 83.8768 125.108 84.0608C125.292 84.2447 125.476 84.5206 125.568 84.7965C125.936 85.6243 125.66 86.6359 125.108 87.2797ZM174.22 82.7732C174.588 82.3133 174.864 81.7615 175.048 81.2097C175.232 80.6579 175.324 80.106 175.324 79.5542C175.324 78.9104 175.232 78.2666 175.048 77.7148C174.864 77.163 174.588 76.6112 174.22 76.1513C173.852 75.6915 173.484 75.2316 172.933 74.9557C172.473 74.5878 171.921 74.3119 171.369 74.22C170.817 74.036 170.265 73.944 169.622 73.944H161.896V90.8666H165.115V85.1644H169.162L171.921 90.8666H175.508L172.381 84.4286C173.116 83.9688 173.76 83.417 174.22 82.7732ZM171.645 81.0257C171.369 81.3017 171.093 81.5776 170.725 81.7615C170.449 81.9454 170.081 82.0374 169.714 82.0374H165.207V76.8871H169.714C170.081 76.8871 170.357 76.9791 170.725 77.163C171.093 77.3469 171.369 77.5309 171.553 77.8068C172.013 78.2666 172.197 78.9104 172.197 79.5542C172.105 80.106 171.921 80.6579 171.645 81.0257ZM213.032 73.944L207.881 90.7746H211.192L212.02 88.1074H218.918L219.745 90.7746H223.056L217.906 73.8521H213.032V73.944ZM212.848 85.1644L215.331 76.8871L217.906 85.1644H212.848ZM266.098 85.1644L258.741 73.944H255.522V90.7746H258.741V79.5542L266.098 90.7746H269.317V73.944H266.098V85.1644ZM314.659 76.1513C314.015 75.4156 313.187 74.8637 312.267 74.4959C311.256 74.128 310.152 73.944 309.048 73.944H303.07V90.8666H309.048C310.152 90.8666 311.256 90.6826 312.267 90.3147C313.279 89.9468 314.107 89.395 314.842 88.5673C315.578 87.7396 316.13 86.8199 316.498 85.8082C316.866 84.7046 317.05 83.6009 317.05 82.4053C317.05 81.2097 316.866 80.106 316.498 79.0024C315.946 77.8988 315.394 76.9791 314.659 76.1513ZM313.187 84.6126C313.003 85.2564 312.635 85.9002 312.175 86.452C311.348 87.2797 310.152 87.8315 308.956 87.7396H306.289V76.9791H309.048C309.692 76.9791 310.336 77.163 310.888 77.3469C311.44 77.5309 311.899 77.8988 312.267 78.3586C313.187 79.5542 313.555 81.0257 313.555 82.4053C313.555 83.1411 313.463 83.9688 313.187 84.6126ZM361.471 82.5892C361.103 82.2214 360.644 81.9454 360.184 81.6695C359.632 81.3936 358.988 81.1177 358.344 80.9338L355.401 80.106C354.666 79.9221 354.022 79.6462 353.47 79.1863C353.286 79.0024 353.102 78.7265 353.102 78.3586C353.102 78.0827 353.194 77.8068 353.286 77.6228C353.47 77.3469 353.654 77.163 353.93 76.9791C354.482 76.6112 355.125 76.5192 355.861 76.5192C356.597 76.5192 357.333 76.7031 357.976 77.163C358.344 77.3469 358.62 77.6228 358.896 77.8988C359.172 78.2666 359.356 78.6345 359.54 79.0024L362.759 78.1747C362.483 77.3469 362.023 76.6112 361.471 75.8754C360.919 75.2316 360.276 74.6798 359.54 74.3119C358.436 73.7601 357.241 73.4842 355.953 73.4842C355.309 73.4842 354.758 73.5762 354.114 73.6681C353.562 73.7601 352.918 73.944 352.366 74.22C351.539 74.5878 350.895 75.1397 350.435 75.8754C349.883 76.6112 349.699 77.4389 349.699 78.3586C349.699 79.0024 349.791 79.6462 350.067 80.198C350.343 80.7498 350.711 81.3017 351.171 81.6695C352.09 82.4053 353.194 82.9571 354.39 83.233L357.517 84.1527C358.068 84.3367 358.62 84.5206 358.988 84.8885C359.356 85.1644 359.54 85.6243 359.54 86.0841C359.54 86.6359 359.264 87.1877 358.896 87.4637C358.528 87.7396 358.16 87.9235 357.701 88.0155C357.241 88.1074 356.781 88.1994 356.229 88.1994C355.585 88.1994 355.033 88.1074 354.482 87.8315C353.93 87.6476 353.47 87.2797 353.102 86.8199C352.642 86.1761 352.366 85.5323 352.274 84.7046L349.055 85.6243C349.331 86.8199 349.791 87.9235 350.619 88.9352C351.263 89.7629 352.09 90.3147 353.01 90.6826C354.022 91.0505 355.125 91.2344 356.229 91.2344C357.057 91.2344 357.976 91.1425 358.804 90.9585C359.54 90.7746 360.184 90.4987 360.828 90.1308C361.471 89.6709 362.023 89.1191 362.391 88.3834C362.759 87.7396 362.943 87.0038 362.943 86.1761C362.943 85.5323 362.851 84.8885 362.575 84.2447C362.483 83.6929 362.023 83.0491 361.471 82.5892Z" fill="#231F20"/>
</svg>
