<svg width="90" height="91" viewBox="0 0 90 91" fill="none" xmlns="http://www.w3.org/2000/svg">
<g id="Layer_1">
<g id="Group">
<path id="Vector" d="M45 90.4688C69.8528 90.4688 90 70.3216 90 45.4688C90 20.6159 69.8528 0.46875 45 0.46875C20.1472 0.46875 0 20.6159 0 45.4688C0 70.3216 20.1472 90.4688 45 90.4688Z" fill="black"/>
</g>
<path id="Vector_2" d="M70.875 53.9828C68.256 53.9828 66.132 56.1068 66.132 58.7258C66.132 61.3448 68.256 63.4688 70.875 63.4688C73.494 63.4688 75.618 61.3448 75.618 58.7258C75.618 56.1068 73.494 53.9828 70.875 53.9828ZM61.11 27.7568L42.678 44.1728L24.255 27.7568C23.517 27.0998 22.356 27.6218 22.356 28.6118V62.3798C22.356 62.9828 22.842 63.4688 23.445 63.4688H30.852C31.455 63.4688 31.941 62.9828 31.941 62.3798V47.4308L41.517 55.9538C42.192 56.5478 43.2 56.5478 43.875 55.9538L53.451 47.4308V62.3798C53.451 62.9828 53.937 63.4688 54.54 63.4688H61.947C62.55 63.4688 63.036 62.9828 63.036 62.3798V28.6118C63.018 27.6308 61.848 27.1088 61.11 27.7568Z" fill="white"/>
</g>
</svg>
